<?xml version="1.0" encoding="UTF-8" standalone="no"?>
<!-- Generator: Assembly 1.0 - http://assemblyapp.co -->

<svg
   xmlns:dc="http://purl.org/dc/elements/1.1/"
   xmlns:cc="http://creativecommons.org/ns#"
   xmlns:rdf="http://www.w3.org/1999/02/22-rdf-syntax-ns#"
   xmlns:svg="http://www.w3.org/2000/svg"
   xmlns="http://www.w3.org/2000/svg"
   xmlns:sodipodi="http://sodipodi.sourceforge.net/DTD/sodipodi-0.dtd"
   xmlns:inkscape="http://www.inkscape.org/namespaces/inkscape"
   version="1.1"
   width="259.35471"
   height="45.801117"
   viewBox="0 0 259.35471 45.801117"
   id="svg15"
   sodipodi:docname="logo-horizontal.svg"
   inkscape:version="0.92.2 (5c3e80d, 2017-08-06)"
   inkscape:export-filename="E:\Code\Wyam.Collateral\logo-horizontal-small.png"
   inkscape:export-xdpi="116.1497"
   inkscape:export-ydpi="116.1497">
  <metadata
     id="metadata21">
    <rdf:RDF>
      <cc:Work
         rdf:about="">
        <dc:format>image/svg+xml</dc:format>
        <dc:type
           rdf:resource="http://purl.org/dc/dcmitype/StillImage" />
        <dc:title />
      </cc:Work>
    </rdf:RDF>
  </metadata>
  <defs
     id="defs19" />
  <sodipodi:namedview
     pagecolor="#ffffff"
     bordercolor="#666666"
     borderopacity="1"
     objecttolerance="10"
     gridtolerance="10"
     guidetolerance="10"
     inkscape:pageopacity="0"
     inkscape:pageshadow="2"
     inkscape:window-width="2560"
     inkscape:window-height="1388"
     id="namedview17"
     showgrid="false"
     inkscape:zoom="2.2250293"
     inkscape:cx="-20.205876"
     inkscape:cy="-33.947961"
     inkscape:window-x="1912"
     inkscape:window-y="130"
     inkscape:window-maximized="1"
     inkscape:current-layer="svg15" />
  <g
     id="widget"
     transform="matrix(0.90187307,0,0,0.90187307,134.11033,1.0113172)">
    <path
       d="m 96.2033,22.5359 -7.4868,-7.4868 c -0.0526,-0.0573 -0.1067,-0.1137 -0.1622,-0.1693 -1.0572,-1.0572 -2.4494,-1.5854 -3.8412,-1.5845 -1.3919,-9e-4 -2.7842,0.5272 -3.8414,1.5845 -0.0556,0.0556 -0.1097,0.112 -0.1623,0.1693 L 69.3849,26.3737 c -2.1128,2.1127 -2.1128,5.5628 0,7.6756 2.1127,2.1127 5.5628,2.1127 7.6755,0 l 7.6526,-7.6526 7.6337,7.6336 c 0.0062,0.0064 0.0125,0.0127 0.0188,0.019 1.0999,1.0999 2.5624,1.6272 4.0099,1.5818 1.3328,-0.0418 2.6529,-0.5691 3.6656,-1.5818 0.006,-0.0063 0.013,-0.0126 0.019,-0.019 l 7.634,-7.6336 7.652,7.6526 c 2.113,2.1127 5.563,2.1127 7.676,0 2.112,-2.1128 2.112,-5.5629 0,-7.6756 L 111.697,15.0491 c -0.052,-0.0573 -0.107,-0.1137 -0.162,-0.1693 -1.057,-1.0572 -2.449,-1.5854 -3.841,-1.5845 -1.392,-9e-4 -2.784,0.5272 -3.842,1.5845 -0.055,0.0556 -0.109,0.112 -0.162,0.1693 z"
       id="path4"
       style="fill:#f9b194;fill-opacity:1"
       inkscape:connector-curvature="0" />
    <path
       d="M 35.6058,15.5033 24.606,26.5031 c -2.1127,2.1128 -2.1127,5.5629 0,7.6756 2.1127,2.1127 5.5628,2.1127 7.6756,0 l 7.6851,-7.6852 7.6205,7.6205 c 2.1127,2.1127 5.5628,2.1127 7.6755,0 2.1127,-2.1128 2.1127,-5.5629 0,-7.6756 L 43.7688,14.9445 c -2.1127,-2.1127 -5.5628,-2.1127 -7.6755,0 -0.1774,0.1774 -0.3399,0.3642 -0.4875,0.5588 z"
       id="path6"
       style="fill:#f67280;fill-opacity:1"
       inkscape:connector-curvature="0" />
    <path
       d="M 4.32854,33.6199 15.3283,22.6201 c 2.1128,-2.1128 2.1128,-5.5629 0,-7.6756 -2.1127,-2.1127 -5.56278,-2.1127 -7.67548,0 L -0.0323587,22.6297 -7.65282,15.0092 c -2.1127,-2.1127 -5.56278,-2.1127 -7.67548,0 -2.1128,2.1128 -2.1128,5.5629 0,7.6756 l 7.61354,7.6135 -7.61304,7.6131 c -2.1127,2.1127 -2.1127,5.5628 0,7.6755 2.1127,2.1127 5.56285,2.1127 7.67556,0 L 3.22763,34.707 c 0.21438,-0.1583 0.41955,-0.3344 0.61346,-0.5283 0.17737,-0.1774 0.33986,-0.3642 0.48745,-0.5588 z"
       id="path8"
       style="fill:#c16c84;fill-opacity:1"
       inkscape:connector-curvature="0" />
    <path
       d="m -55.8897,26.5226 7.4868,7.4867 c 0.0526,0.0574 0.1067,0.1138 0.1622,0.1694 1.0572,1.0572 2.4493,1.5854 3.8412,1.5845 1.3919,9e-4 2.7841,-0.5273 3.8414,-1.5845 0.0556,-0.0556 0.1096,-0.112 0.1622,-0.1694 l 11.3246,-11.3246 c 2.1127,-2.1127 2.1127,-5.5628 0,-7.6755 -2.1127,-2.1127 -5.5628,-2.1127 -7.6755,0 l -7.6526,7.6526 -7.6352,-7.6352 c -0.0057,-0.0058 -0.0115,-0.0116 -0.0173,-0.0174 -1.0564,-1.0563 -2.4471,-1.5845 -3.8378,-1.5845 -1.3907,0 -2.7814,0.5282 -3.8378,1.5845 -0.0067,0.0068 -0.0135,0.0135 -0.0202,0.0203 l -7.6323,7.6323 v 0 l -7.6526,-7.6526 c -2.1127,-2.1127 -5.5628,-2.1127 -7.6755,0 -2.1127,2.1127 -2.1127,5.5629 0,7.6756 l 11.3246,11.3246 c 0.0526,0.0573 0.1066,0.1137 0.1622,0.1693 1.0572,1.0572 2.4494,1.5854 3.8413,1.5845 1.3919,9e-4 2.7841,-0.5273 3.8413,-1.5845 0.0555,-0.0556 0.1096,-0.112 0.1622,-0.1693 z"
       id="path10"
       style="fill:#6c5b7b;fill-opacity:1"
       inkscape:connector-curvature="0" />
    <path
       d="m -134.049,21.4986 v 0 c -1.821,6.6642 -0.086,14.0881 5.186,19.2895 7.773,7.6689 20.273,7.5846 27.942,-0.1885 5.2576,-5.3288 6.8711,-12.8796 4.8616,-19.5722 -0.7377,-2.4565 -1.9634,-4.7974 -3.6763,-6.8704 L -110.796,3.14552 c -2.384,-2.374364 -6.27,-2.365827 -8.645,0.019 -0.199,0.20022 -0.382,0.41102 -0.547,0.63061 l -9.84,9.88317 c -2.044,2.3206 -3.45,5.0026 -4.221,7.8203 z m 21.77,13.9549 c 3.815,-0.0919 6.889,-3.1663 6.979,-6.9824 -0.004,-0.0527 -0.006,-0.1059 -0.005,-0.1597 0.007,-1.0326 0.849,-1.8626 1.882,-1.8551 1.019,0.0074 1.841,0.8276 1.855,1.8418 h 0.001 c 0,6.0105 -4.878,10.8887 -10.888,10.8887 v -0.0037 c -0.003,0 -0.007,-1e-4 -0.01,-1e-4 -1.033,-0.0075 -1.862,-0.8495 -1.855,-1.8822 0.007,-1.0326 0.849,-1.8626 1.882,-1.8551 0.054,4e-4 0.106,0.003 0.159,0.0078 z"
       id="path12"
       inkscape:connector-curvature="0"
       style="fill:#345b7d;fill-opacity:1" />
  </g>
</svg>
