<?xml version="1.0" encoding="UTF-8" standalone="no"?>
<!-- Generator: Assembly 1.0 - http://assemblyapp.co -->

<svg
   xmlns:dc="http://purl.org/dc/elements/1.1/"
   xmlns:cc="http://creativecommons.org/ns#"
   xmlns:rdf="http://www.w3.org/1999/02/22-rdf-syntax-ns#"
   xmlns:svg="http://www.w3.org/2000/svg"
   xmlns="http://www.w3.org/2000/svg"
   xmlns:sodipodi="http://sodipodi.sourceforge.net/DTD/sodipodi-0.dtd"
   xmlns:inkscape="http://www.inkscape.org/namespaces/inkscape"
   inkscape:export-ydpi="100.58352"
   inkscape:export-xdpi="100.58352"
   inkscape:export-filename="E:\Code\Wyam.Collateral\logo-horizontal-shadow.png"
   inkscape:version="0.92.2 (5c3e80d, 2017-08-06)"
   sodipodi:docname="logo-horizontal-shadow.svg"
   id="svg15"
   viewBox="0 0 259.35471 45.801117"
   height="45.801117"
   width="259.35471"
   version="1.1">
  <sodipodi:namedview
     inkscape:current-layer="svg15"
     inkscape:window-maximized="1"
     inkscape:window-y="130"
     inkscape:window-x="1912"
     inkscape:cy="-69.078567"
     inkscape:cx="270.68396"
     inkscape:zoom="2.2250293"
     showgrid="false"
     id="namedview17"
     inkscape:window-height="1388"
     inkscape:window-width="2560"
     inkscape:pageshadow="2"
     inkscape:pageopacity="0"
     guidetolerance="10"
     gridtolerance="10"
     objecttolerance="10"
     borderopacity="1"
     bordercolor="#666666"
     pagecolor="#ffffff" />
  <metadata
     id="metadata21">
    <rdf:RDF>
      <cc:Work
         rdf:about="">
        <dc:format>image/svg+xml</dc:format>
        <dc:type
           rdf:resource="http://purl.org/dc/dcmitype/StillImage" />
        <dc:title></dc:title>
      </cc:Work>
    </rdf:RDF>
  </metadata>
  <defs
     id="defs19">
    <clipPath
       clipPathUnits="userSpaceOnUse"
       id="clipPath1944">
      <rect
         y="-0.93984056"
         x="-0.44943228"
         height="47.639824"
         width="262.46844"
         id="rect1946"
         style="fill:#eeeeee;fill-opacity:1;stroke-width:1.00085723" />
    </clipPath>
    <clipPath
       clipPathUnits="userSpaceOnUse"
       id="clipPath1948">
      <rect
         y="-0.93984056"
         x="-0.44943228"
         height="47.639824"
         width="262.46844"
         id="rect1950"
         style="fill:#eeeeee;fill-opacity:1;stroke-width:1.00085723" />
    </clipPath>
    <clipPath
       clipPathUnits="userSpaceOnUse"
       id="clipPath1952">
      <rect
         y="-0.93984056"
         x="-0.44943228"
         height="47.639824"
         width="262.46844"
         id="rect1954"
         style="fill:#eeeeee;fill-opacity:1;stroke-width:1.00085723" />
    </clipPath>
    <clipPath
       clipPathUnits="userSpaceOnUse"
       id="clipPath1956">
      <rect
         y="-0.93984056"
         x="-0.44943228"
         height="47.639824"
         width="262.46844"
         id="rect1958"
         style="fill:#eeeeee;fill-opacity:1;stroke-width:1.00085723" />
    </clipPath>
    <clipPath
       clipPathUnits="userSpaceOnUse"
       id="clipPath1960">
      <rect
         y="-0.93984056"
         x="-0.44943228"
         height="47.639824"
         width="262.46844"
         id="rect1962"
         style="fill:#eeeeee;fill-opacity:1;stroke-width:1.00085723" />
    </clipPath>
  </defs>
  <rect
     style="fill:#eeeeee;fill-opacity:1;stroke-width:1.00085723"
     id="rect1940"
     width="262.46844"
     height="47.639824"
     x="-0.44943228"
     y="-0.93984056" />
  <g
     id="g2085">
    <g
       clip-path="url(#clipPath1960)"
       style="fill:#cccccc;fill-opacity:1"
       id="g225">
      <g
         style="fill:#cccccc;fill-opacity:1;stroke-width:0.90187305"
         id="g222">
        <path
           style="fill:#cccccc;fill-opacity:1"
           d="M13.215147 20.400326L13.215147 20.400326L225.347181356 232.532360356L225.347181356 232.532360356Z"
           id="path174" />
        <path
           style="fill:#cccccc;fill-opacity:1"
           d="M13.215147 20.400326C11.5829176155 26.3736929476 13.1184968533 33.0238278369 17.8050594122 37.7103903958L229.937093768 249.842424752C225.250531209 245.155862193 223.714951971 238.505727304 225.347181356 232.532360356Z"
           id="path176" />
        <path
           style="fill:#cccccc;fill-opacity:1"
           d="M17.8050594122 37.7103903958C17.8340063985 37.7393373821 17.8630735958 37.7682094576 17.892261 37.797006L230.024295356 249.929040356C229.995107952 249.900243814 229.966040754 249.871371738 229.937093768 249.842424752Z"
           id="path178" />
        <path
           style="fill:#cccccc;fill-opacity:1"
           d="M17.892261 37.797006C24.90252 44.713381 36.175933 44.637353 43.092398 37.627003L255.224432356 249.759037356C248.307967356 256.769387356 237.034554356 256.845415356 230.024295356 249.929040356Z"
           id="path180" />
        <path
           style="fill:#cccccc;fill-opacity:1"
           d="M43.092398 37.627003C47.834086 32.821102 49.289258 26.011239 47.476944 19.975363L259.608978356 232.107397356C261.421292356 238.143273356 259.966120356 244.953136356 255.224432356 249.759037356Z"
           id="path182" />
        <path
           style="fill:#cccccc;fill-opacity:1"
           d="M47.476944 19.975363C46.811632 17.759912 45.706206 15.648717 44.161388 13.779134L256.293422356 225.911168356C257.838240356 227.780751356 258.943666356 229.891946356 259.608978356 232.107397356Z"
           id="path184" />
        <path
           style="fill:#cccccc;fill-opacity:1"
           d="M44.161388 13.779134L34.186401 3.848177L246.318435356 215.980211356L256.293422356 225.911168356Z"
           id="path186" />
        <path
           style="fill:#cccccc;fill-opacity:1"
           d="M34.186401 3.848177C32.036336 1.706802 28.531657 1.7145013 26.389709 3.865313L238.521743356 215.997347356C240.663691356 213.846535656 244.168370356 213.838836356 246.318435356 215.980211356Z"
           id="path188" />
        <path
           style="fill:#cccccc;fill-opacity:1"
           d="M26.389709 3.865313C26.210236 4.045886 26.045193 4.2360008 25.896384 4.4340431L238.028418356 216.566077456C238.177227356 216.368035156 238.342270356 216.177920356 238.521743356 215.997347356Z"
           id="path190" />
        <path
           style="fill:#cccccc;fill-opacity:1"
           d="M25.896384 4.4340431L17.021953 13.347408L229.153987356 225.479442356L238.028418356 216.566077456Z"
           id="path192" />
        <path
           style="fill:#cccccc;fill-opacity:1"
           d="M17.021953 13.347408C15.178525 15.440294 13.910491 17.859118 13.215147 20.400326L225.347181356 232.532360356C226.042525356 229.991152356 227.310559356 227.572328356 229.153987356 225.479442356Z"
           id="path194" />
        <path
           style="fill:#cccccc;fill-opacity:1"
           d="M32.848924 32.985874C36.289569 32.902994 39.061927 30.130273 39.143096 26.688636L251.275130356 238.820670356C251.193961356 242.262307356 248.421603356 245.035028356 244.980958356 245.117908356Z"
           id="path196" />
        <path
           style="fill:#cccccc;fill-opacity:1"
           d="M39.143096 26.688636C39.139496 26.641106 39.137696 26.593126 39.138596 26.544606L251.270630356 238.676640356C251.269730356 238.725160356 251.271530356 238.773140356 251.275130356 238.820670356Z"
           id="path198" />
        <path
           style="fill:#cccccc;fill-opacity:1"
           d="M39.138596 26.544606C39.144896 25.613332 39.904287 24.864778 40.835921 24.871542L252.967955356 237.003576356C252.036321356 236.996812356 251.276930356 237.745366356 251.270630356 238.676640356Z"
           id="path200" />
        <path
           style="fill:#cccccc;fill-opacity:1"
           d="M40.835921 24.871542C41.2971419779 24.8749045139 41.713613245 25.062886126 42.015679379 25.36495226L254.147713735 237.496986616C253.845647601 237.194920482 253.429176334 237.00693887 252.967955356 237.003576356Z"
           id="path202" />
        <path
           style="fill:#cccccc;fill-opacity:1"
           d="M42.015679379 25.36495226C42.315497177 25.664770058 42.5026065822 26.0769803924 42.508896 26.532612L254.640930356 238.664646356C254.634640938 238.209014748 254.447531533 237.796804414 254.147713735 237.496986616Z"
           id="path204" />
        <path
           style="fill:#cccccc;fill-opacity:1"
           d="M42.508896 26.532612L42.509798 26.532612L254.641832356 238.664646356L254.640930356 238.664646356Z"
           id="path206" />
        <path
           style="fill:#cccccc;fill-opacity:1"
           d="M42.509798 26.532612C42.509798 31.95332 38.110461 36.352837 32.690204 36.352837L244.822238356 248.484871356C250.242495356 248.484871356 254.641832356 244.085354356 254.641832356 238.664646356Z"
           id="path208" />
        <path
           style="fill:#cccccc;fill-opacity:1"
           d="M32.690204 36.352837L32.690204 36.349537L244.822238356 248.481571356L244.822238356 248.484871356Z"
           id="path210" />
        <path
           style="fill:#cccccc;fill-opacity:1"
           d="M32.690204 36.349537C32.687504 36.349537 32.683904 36.349447 32.681204 36.349447L244.813238356 248.481481356C244.815938356 248.481481356 244.819538356 248.481571356 244.822238356 248.481571356Z"
           id="path212" />
        <path
           style="fill:#cccccc;fill-opacity:1"
           d="M32.681204 36.349447C32.2199158407 36.3460800596 31.8037333077 36.1582187193 31.5018459779 35.8563313895L243.633880334 247.988365746C243.935767664 248.290253075 244.351950197 248.478114416 244.813238356 248.481481356Z"
           id="path214" />
        <path
           style="fill:#cccccc;fill-opacity:1"
           d="M31.5018459779 35.8563313895C31.1940302473 35.5485156589 31.005042808 35.122151528 31.00823 34.651941L243.140264356 246.783975356C243.137077164 247.254185884 243.326064603 247.680550015 243.633880334 247.988365746Z"
           id="path216" />
        <path
           style="fill:#cccccc;fill-opacity:1"
           d="M31.00823 34.651941C31.01453 33.720667 31.77392 32.972112 32.705555 32.978876L244.837589356 245.110910356C243.905954356 245.104146356 243.146564356 245.852701356 243.140264356 246.783975356Z"
           id="path218" />
        <path
           style="fill:#cccccc;fill-opacity:1"
           d="M32.705555 32.978876C32.754255 32.979237 32.801155 32.981576 32.848953 32.985876L244.980987356 245.117910356C244.933189356 245.113610356 244.886289356 245.111271356 244.837589356 245.110910356Z"
           id="path220" />
      </g>
      <path
         d="m 13.215147,20.400326 v 0 c -1.642311,6.010262 -0.07756,12.705678 4.677114,17.39668 7.010259,6.916375 18.283672,6.840347 25.200137,-0.170003 4.741688,-4.805901 6.19686,-11.615764 4.384546,-17.65164 -0.665312,-2.215451 -1.770738,-4.326646 -3.315556,-6.196229 L 34.186401,3.848177 C 32.036336,1.706802 28.531657,1.7145013 26.389709,3.865313 26.210236,4.045886 26.045193,4.2360008 25.896384,4.4340431 l -8.874431,8.9133649 c -1.843428,2.092886 -3.111462,4.51171 -3.806806,7.052918 z m 19.633777,12.585548 c 3.440645,-0.08288 6.213003,-2.855601 6.294172,-6.297238 -0.0036,-0.04753 -0.0054,-0.09551 -0.0045,-0.14403 0.0063,-0.931274 0.765691,-1.679828 1.697325,-1.673064 0.919009,0.0067 1.660349,0.74639 1.672975,1.66107 h 9.02e-4 c 0,5.420708 -4.399337,9.820225 -9.819594,9.820225 v -0.0033 c -0.0027,0 -0.0063,-9e-5 -0.009,-9e-5 -0.931635,-0.0068 -1.679287,-0.766141 -1.672974,-1.697506 0.0063,-0.931274 0.76569,-1.679829 1.697325,-1.673065 0.0487,3.61e-4 0.0956,0.0027 0.143398,0.007 z"
         id="path33"
         inkscape:connector-curvature="0"
         style="fill:#cccccc;fill-opacity:1;stroke-width:0.90187305" />
    </g>
    <g
       clip-path="url(#clipPath1956)"
       style="fill:#cccccc;fill-opacity:1"
       id="g363">
      <g
         id="g360"
         style="fill:#cccccc;fill-opacity:1;stroke-width:0.90187305">
        <path
           style="fill:#cccccc;fill-opacity:1"
           id="path306"
           d="M83.704915 24.931336L90.457058 31.683389L302.589092356 243.815423356L295.836949356 237.063370356Z" />
        <path
           style="fill:#cccccc;fill-opacity:1"
           id="path308"
           d="M90.457058 31.683389C90.504498 31.735159 90.553288 31.786022 90.603342 31.836166L302.735376356 243.968200356C302.685322356 243.918056356 302.636532356 243.867193356 302.589092356 243.815423356Z" />
        <path
           style="fill:#cccccc;fill-opacity:1"
           id="path310"
           d="M90.603342 31.836166C90.6033426119 31.8361666119 90.6033432237 31.8361672238 90.6033438356 31.8361678356L302.735378192 243.968202192C302.73537758 243.96820158 302.735376968 243.968200968 302.735376356 243.968200356Z" />
        <path
           style="fill:#cccccc;fill-opacity:1"
           id="path312"
           d="M90.6033438356 31.8361678356C91.5568036114 32.7896276114 92.8123008056 33.2659959995 94.067617 33.265184L306.199651356 245.397218356C304.944335162 245.398030355 303.688837967 244.921661967 302.735378192 243.968202192Z" />
        <path
           style="fill:#cccccc;fill-opacity:1"
           id="path314"
           d="M94.067617 33.265184C95.322934 33.265996 96.578521 32.789627 97.532072 31.836166L309.664106356 243.968200356C308.710555356 244.921661356 307.454968356 245.398030356 306.199651356 245.397218356Z" />
        <path
           style="fill:#cccccc;fill-opacity:1"
           id="path316"
           d="M97.532072 31.836166C97.582212 31.786026 97.630912 31.735157 97.678356 31.683389L309.810390356 243.815423356C309.762946356 243.867191356 309.714246356 243.918060356 309.664106356 243.968200356Z" />
        <path
           style="fill:#cccccc;fill-opacity:1"
           id="path318"
           d="M97.678356 31.683389L107.89171 21.470037L320.023744356 233.602071356L309.810390356 243.815423356Z" />
        <path
           style="fill:#cccccc;fill-opacity:1"
           id="path320"
           d="M107.89171 21.470037C109.79709 19.56465 109.79709 16.453098 107.89171 14.54771L320.023744356 226.679744356C321.929124356 228.585132356 321.929124356 231.696684356 320.023744356 233.602071356Z" />
        <path
           style="fill:#cccccc;fill-opacity:1"
           id="path322"
           d="M107.89171 14.54771C105.98632 12.642323 102.87477 12.642323 100.96938 14.54771L313.101414356 226.679744356C315.006804356 224.774357356 318.118354356 224.774357356 320.023744356 226.679744356Z" />
        <path
           style="fill:#cccccc;fill-opacity:1"
           id="path324"
           d="M100.96938 14.54771L94.067707 21.449384L306.199741356 233.581418356L313.101414356 226.679744356Z" />
        <path
           style="fill:#cccccc;fill-opacity:1"
           id="path326"
           d="M94.067707 21.449384L87.181726 14.563403L299.313760356 226.695437356L306.199741356 233.581418356Z" />
        <path
           style="fill:#cccccc;fill-opacity:1"
           id="path328"
           d="M87.181726 14.563403C87.177476 14.5590696667 87.1731079444 14.5546946667 87.1687433611 14.5503300833L299.300777717 226.682364439C299.3051423 226.686729023 299.309510356 226.691104023 299.313760356 226.695437356Z" />
        <path
           style="fill:#cccccc;fill-opacity:1"
           id="path330"
           d="M87.1687433611 14.5503300833C87.1678704444 14.5494571667 87.1669976667 14.5485846667 87.166126 14.547713L299.298160356 226.679747356C299.299032023 226.680619023 299.2999048 226.681491523 299.300777717 226.682364439Z" />
        <path
           style="fill:#cccccc;fill-opacity:1"
           id="path332"
           d="M87.166126 14.547713C86.213387 13.595065 84.959153 13.118696 83.704918 13.118696L295.836952356 225.250730356C297.091187356 225.250730356 298.345421356 225.727099356 299.298160356 226.679747356Z" />
        <path
           style="fill:#cccccc;fill-opacity:1"
           id="path334"
           d="M83.704918 13.118696C82.450683 13.118696 81.196448 13.595065 80.243709 14.547713L292.375743356 226.679747356C293.328482356 225.727099356 294.582717356 225.250730356 295.836952356 225.250730356Z" />
        <path
           style="fill:#cccccc;fill-opacity:1"
           id="path336"
           d="M80.243709 14.547713C80.237709 14.553813 80.231539 14.559893 80.225489 14.566023L292.357523356 226.698057356C292.363573356 226.691927356 292.369743356 226.685847356 292.375743356 226.679747356Z" />
        <path
           style="fill:#cccccc;fill-opacity:1"
           id="path338"
           d="M80.225489 14.566023L73.342124 21.449388L285.474158356 233.581422356L292.357523356 226.698057356Z" />
        <path
           style="fill:#cccccc;fill-opacity:1"
           id="path340"
           d="M73.342124 21.449388L73.342124 21.449388L285.474158356 233.581422356L285.474158356 233.581422356Z" />
        <path
           style="fill:#cccccc;fill-opacity:1"
           id="path342"
           d="M73.342124 21.449388L66.440449 14.54771L278.572483356 226.679744356L285.474158356 233.581422356Z" />
        <path
           style="fill:#cccccc;fill-opacity:1"
           id="path344"
           d="M66.440449 14.54771C64.535061 12.642323 61.423509 12.642323 59.518122 14.54771L271.650156356 226.679744356C273.555543356 224.774357356 276.667095356 224.774357356 278.572483356 226.679744356Z" />
        <path
           style="fill:#cccccc;fill-opacity:1"
           id="path346"
           d="M59.518122 14.54771C57.612735 16.453098 57.612735 19.56474 59.518122 21.470127L271.650156356 233.602161356C269.744769356 231.696774356 269.744769356 228.585132356 271.650156356 226.679744356Z" />
        <path
           style="fill:#cccccc;fill-opacity:1"
           id="path348"
           d="M59.518122 21.470127L69.731474 31.683479L281.863508356 243.815513356L271.650156356 233.602161356Z" />
        <path
           style="fill:#cccccc;fill-opacity:1"
           id="path350"
           d="M69.731474 31.683479C69.778914 31.735159 69.827614 31.786022 69.877758 31.836166L282.009792356 243.968200356C281.959648356 243.918056356 281.910948356 243.867193356 281.863508356 243.815513356Z" />
        <path
           style="fill:#cccccc;fill-opacity:1"
           id="path352"
           d="M69.877758 31.836166C69.8777586118 31.8361666118 69.8777592236 31.8361672236 69.8777598354 31.8361678354L282.009794191 243.968202191C282.00979358 243.96820158 282.009792968 243.968200968 282.009792356 243.968200356Z" />
        <path
           style="fill:#cccccc;fill-opacity:1"
           id="path354"
           d="M69.8777598354 31.8361678354C70.8312196113 32.7896276113 72.0868058055 33.2659959995 73.342123 33.265184L285.474157356 245.397218356C284.218840161 245.398030355 282.963253967 244.921661967 282.009794191 243.968202191Z" />
        <path
           style="fill:#cccccc;fill-opacity:1"
           id="path356"
           d="M73.342123 33.265184C74.59744 33.265996 75.853027 32.789627 76.806488 31.836166L288.938522356 243.968200356C287.985061356 244.921661356 286.729474356 245.398030356 285.474157356 245.397218356Z" />
        <path
           style="fill:#cccccc;fill-opacity:1"
           id="path358"
           d="M76.806488 31.836166C76.856538 31.786026 76.905328 31.735157 76.952771 31.683479L289.084805356 243.815513356C289.037362356 243.867191356 288.988572356 243.918060356 288.938522356 243.968200356Z" />
      </g>
      <path
         d="m 83.704915,24.931336 6.752143,6.752053 c 0.04744,0.05177 0.09623,0.102633 0.146284,0.152777 0.95346,0.953461 2.208958,1.42983 3.464275,1.429018 1.255317,8.12e-4 2.510904,-0.475557 3.464455,-1.429018 0.05014,-0.05014 0.09884,-0.101009 0.146284,-0.152777 L 107.89171,21.470037 c 1.90538,-1.905387 1.90538,-5.016939 0,-6.922327 -1.90539,-1.905387 -5.01694,-1.905387 -6.92233,0 l -6.901673,6.901674 -6.885981,-6.885981 c -0.0051,-0.0052 -0.01037,-0.01046 -0.0156,-0.01569 -0.952739,-0.952648 -2.206973,-1.429017 -3.461208,-1.429017 -1.254235,0 -2.50847,0.476369 -3.461209,1.429017 -0.006,0.0061 -0.01217,0.01218 -0.01822,0.01831 l -6.883365,6.883365 v 0 L 66.440449,14.54771 c -1.905388,-1.905387 -5.01694,-1.905387 -6.922327,0 -1.905387,1.905388 -1.905387,5.01703 0,6.922417 l 10.213352,10.213352 c 0.04744,0.05168 0.09614,0.102543 0.146284,0.152687 0.95346,0.953461 2.209047,1.42983 3.464365,1.429018 1.255317,8.12e-4 2.510904,-0.475557 3.464365,-1.429018 0.05005,-0.05014 0.09884,-0.101009 0.146283,-0.152687 z"
         id="path31"
         style="fill:#cccccc;fill-opacity:1;stroke-width:0.90187305"
         inkscape:connector-curvature="0" />
    </g>
    <g
       clip-path="url(#clipPath1952)"
       style="fill:#cccccc;fill-opacity:1"
       id="g539">
      <g
         style="fill:#cccccc;fill-opacity:1;stroke-width:0.90187305"
         id="g536">
        <path
           style="fill:#cccccc;fill-opacity:1"
           d="M138.01412 31.3322L147.93451 21.411776L360.066544356 233.543810356L350.146154356 243.464234356Z"
           id="path502" />
        <path
           style="fill:#cccccc;fill-opacity:1"
           d="M147.93451 21.411776C149.839961831 19.5063271692 149.83999 16.3948389975 147.934594506 14.4894435044L360.066628862 226.62147786C361.972024356 228.526873354 361.971996187 231.638361525 360.066544356 233.543810356Z"
           id="path504" />
        <path
           style="fill:#cccccc;fill-opacity:1"
           d="M147.934594506 14.4894435044C147.934566338 14.489415336 147.934538169 14.4893871679 147.93451 14.489359L360.066544356 226.621393356C360.066572525 226.621421524 360.066600694 226.621449692 360.066628862 226.62147786Z"
           id="path506" />
        <path
           style="fill:#cccccc;fill-opacity:1"
           d="M147.93451 14.489359C146.02912 12.583972 142.91759 12.583972 141.0122 14.489359L353.144234356 226.621393356C355.049624356 224.716006356 358.161154356 224.716006356 360.066544356 226.621393356Z"
           id="path508" />
        <path
           style="fill:#cccccc;fill-opacity:1"
           d="M141.0122 14.489359L134.08115 21.420434L346.213184356 233.552468356L353.144234356 226.621393356Z"
           id="path510" />
        <path
           style="fill:#cccccc;fill-opacity:1"
           d="M134.08115 21.420434L127.20846 14.54771L339.340494356 226.679744356L346.213184356 233.552468356Z"
           id="path512" />
        <path
           style="fill:#cccccc;fill-opacity:1"
           d="M127.20846 14.54771C125.30307 12.642323 122.19154 12.642323 120.28615 14.54771L332.418184356 226.679744356C334.323574356 224.774357356 337.435104356 224.774357356 339.340494356 226.679744356Z"
           id="path514" />
        <path
           style="fill:#cccccc;fill-opacity:1"
           d="M120.28615 14.54771C118.380698475 16.4531595246 118.38067 19.5646470025 120.286064575 21.4700415772L332.418098931 233.602075933C330.512704356 231.696681358 330.512732831 228.585193881 332.418184356 226.679744356Z"
           id="path516" />
        <path
           style="fill:#cccccc;fill-opacity:1"
           d="M120.286064575 21.4700415772C120.28609305 21.4700700517 120.286121525 21.470098526 120.28615 21.470127L332.418184356 233.602161356C332.418155881 233.602132882 332.418127406 233.602104408 332.418098931 233.602075933Z"
           id="path518" />
        <path
           style="fill:#cccccc;fill-opacity:1"
           d="M120.28615 21.470127L127.1526 28.336538L339.284634356 240.468572356L332.418184356 233.602161356Z"
           id="path520" />
        <path
           style="fill:#cccccc;fill-opacity:1"
           d="M127.1526 28.336538L120.2866 35.202588L332.418634356 247.334622356L339.284634356 240.468572356Z"
           id="path522" />
        <path
           style="fill:#cccccc;fill-opacity:1"
           d="M120.2866 35.202588C118.381210612 37.1079743876 118.38121 40.219525 120.286598163 42.1249131629L332.418632519 254.256947519C330.513244356 252.351559356 330.513244968 249.240008744 332.418634356 247.334622356Z"
           id="path524" />
        <path
           style="fill:#cccccc;fill-opacity:1"
           d="M120.286598163 42.1249131629C120.286598775 42.1249137753 120.286599388 42.1249143876 120.2866 42.124915L332.418634356 254.256949356C332.418633744 254.256948744 332.418633131 254.256948131 332.418632519 254.256947519Z"
           id="path526" />
        <path
           style="fill:#cccccc;fill-opacity:1"
           d="M120.2866 42.124915C122.19199 44.030302 125.30358 44.030302 127.20898 42.124915L339.341014356 254.256949356C337.435614356 256.162336356 334.324024356 256.162336356 332.418634356 254.256949356Z"
           id="path528" />
        <path
           style="fill:#cccccc;fill-opacity:1"
           d="M127.20898 42.124915L137.02124 32.312626L349.153274356 244.444660356L339.341014356 254.256949356Z"
           id="path530" />
        <path
           style="fill:#cccccc;fill-opacity:1"
           d="M137.02124 32.312626C137.21459 32.169859 137.39962 32.011039 137.57451 31.836166L349.706544356 243.968200356C349.531654356 244.143073356 349.346624356 244.301893356 349.153274356 244.444660356Z"
           id="path532" />
        <path
           style="fill:#cccccc;fill-opacity:1"
           d="M137.57451 31.836166C137.73447 31.676174 137.88102 31.507704 138.01412 31.3322L350.146154356 243.464234356C350.013054356 243.639738356 349.866504356 243.808208356 349.706544356 243.968200356Z"
           id="path534" />
      </g>
      <path
         d="m 138.01412,31.3322 9.92039,-9.920424 c 1.90548,-1.905477 1.90548,-5.017029 0,-6.922417 -1.90539,-1.905387 -5.01692,-1.905387 -6.92231,0 l -6.93105,6.931075 -6.87269,-6.872724 c -1.90539,-1.905387 -5.01692,-1.905387 -6.92231,0 -1.90548,1.905478 -1.90548,5.01703 0,6.922417 l 6.86645,6.866411 -6.866,6.86605 c -1.90539,1.905387 -1.90539,5.016939 0,6.922327 1.90539,1.905387 5.01698,1.905387 6.92238,0 l 9.81226,-9.812289 c 0.19335,-0.142767 0.37838,-0.301587 0.55327,-0.47646 0.15996,-0.159992 0.30651,-0.328462 0.43961,-0.503966 z"
         id="path29"
         style="fill:#cccccc;fill-opacity:1;stroke-width:0.90187305"
         inkscape:connector-curvature="0" />
    </g>
    <g
       clip-path="url(#clipPath1948)"
       style="fill:#cccccc;fill-opacity:1"
       id="g743">
      <g
         id="g740"
         style="fill:#cccccc;fill-opacity:1;stroke-width:0.90187305">
        <path
           style="fill:#cccccc;fill-opacity:1"
           id="path716"
           d="M166.22224 14.993326L156.30182 24.913749L368.433854356 237.045783356L378.354274356 227.125360356Z" />
        <path
           style="fill:#cccccc;fill-opacity:1"
           id="path718"
           d="M156.30182 24.913749C154.396430919 26.8192260814 154.39643 29.930776 156.301817244 31.8361632444L368.4338516 243.9681976C366.528464356 242.062810356 366.528465275 238.951260437 368.433854356 237.045783356Z" />
        <path
           style="fill:#cccccc;fill-opacity:1"
           id="path720"
           d="M156.301817244 31.8361632444C156.301818163 31.8361641629 156.301819081 31.8361650815 156.30182 31.836166L368.433854356 243.968200356C368.433853437 243.968199437 368.433852519 243.968198519 368.4338516 243.9681976Z" />
        <path
           style="fill:#cccccc;fill-opacity:1"
           id="path722"
           d="M156.30182 31.836166C158.20721 33.741554 161.31876 33.741554 163.22424 31.836166L375.356274356 243.968200356C373.450794356 245.873588356 370.339244356 245.873588356 368.433854356 243.968200356Z" />
        <path
           style="fill:#cccccc;fill-opacity:1"
           id="path724"
           d="M163.22424 31.836166L170.15522 24.905091L382.287254356 237.037125356L375.356274356 243.968200356Z" />
        <path
           style="fill:#cccccc;fill-opacity:1"
           id="path726"
           d="M170.15522 24.905091L177.02794 31.777815L389.159974356 243.909849356L382.287254356 237.037125356Z" />
        <path
           style="fill:#cccccc;fill-opacity:1"
           id="path728"
           d="M177.02794 31.777815C178.93333 33.683202 182.04488 33.683202 183.95027 31.777815L396.082304356 243.909849356C394.176914356 245.815236356 391.065364356 245.815236356 389.159974356 243.909849356Z" />
        <path
           style="fill:#cccccc;fill-opacity:1"
           id="path730"
           d="M183.95027 31.777815C185.855659081 29.8723389186 185.85566 26.760788 183.950272756 24.8554007556L396.082307112 236.987435112C397.987694356 238.892822356 397.987693437 242.004373275 396.082304356 243.909849356Z" />
        <path
           style="fill:#cccccc;fill-opacity:1"
           id="path732"
           d="M183.950272756 24.8554007556C183.950271837 24.8553998371 183.950270919 24.8553989185 183.95027 24.855398L396.082304356 236.987432356C396.082305275 236.987433275 396.082306193 236.987434193 396.082307112 236.987435112Z" />
        <path
           style="fill:#cccccc;fill-opacity:1"
           id="path734"
           d="M183.95027 24.855398L173.58423 14.489359L385.716264356 226.621393356L396.082304356 236.987432356Z" />
        <path
           style="fill:#cccccc;fill-opacity:1"
           id="path736"
           d="M173.58423 14.489359C171.67884 12.583972 168.56729 12.583972 166.66191 14.489359L378.793944356 226.621393356C380.699324356 224.716006356 383.810874356 224.716006356 385.716264356 226.621393356Z" />
        <path
           style="fill:#cccccc;fill-opacity:1"
           id="path738"
           d="M166.66191 14.489359C166.50191 14.649352 166.35536 14.817821 166.22224 14.993326L378.354274356 227.125360356C378.487394356 226.949855356 378.633944356 226.781386356 378.793944356 226.621393356Z" />
      </g>
      <path
         d="m 166.22224,14.993326 -9.92042,9.920423 c -1.90539,1.905478 -1.90539,5.01703 0,6.922417 1.90539,1.905388 5.01694,1.905388 6.92242,0 l 6.93098,-6.931075 6.87272,6.872724 c 1.90539,1.905387 5.01694,1.905387 6.92233,0 1.90539,-1.905477 1.90539,-5.01703 0,-6.922417 L 173.58423,14.489359 c -1.90539,-1.905387 -5.01694,-1.905387 -6.92232,0 -0.16,0.159993 -0.30655,0.328462 -0.43967,0.503967 z"
         id="path27"
         style="fill:#cccccc;fill-opacity:1;stroke-width:0.90187305"
         inkscape:connector-curvature="0" />
    </g>
    <g
       clip-path="url(#clipPath1944)"
       style="fill:#cccccc;fill-opacity:1"
       id="g1003">
      <g
         style="fill:#cccccc;fill-opacity:1;stroke-width:0.90187305"
         id="g1000">
        <path
           style="fill:#cccccc;fill-opacity:1"
           d="M220.8735 21.335839L214.12135 14.583695L426.253384356 226.715729356L433.005534356 233.467873356Z"
           id="path948" />
        <path
           style="fill:#cccccc;fill-opacity:1"
           d="M214.12135 14.583695C214.07395 14.532015 214.02515 14.481152 213.97507 14.431008L426.107104356 226.563042356C426.157184356 226.613186356 426.205984356 226.664049356 426.253384356 226.715729356Z"
           id="path950" />
        <path
           style="fill:#cccccc;fill-opacity:1"
           d="M213.97507 14.431008C213.02161 13.477548 211.76602 13.001179 210.51079 13.00199L422.642824356 225.134024356C423.898054356 225.133213356 425.153644356 225.609582356 426.107104356 226.563042356Z"
           id="path952" />
        <path
           style="fill:#cccccc;fill-opacity:1"
           d="M210.51079 13.00199C209.25548 13.001179 207.9998 13.477458 207.04634 14.431008L419.178374356 226.563042356C420.131834356 225.609492356 421.387514356 225.133213356 422.642824356 225.134024356Z"
           id="path954" />
        <path
           style="fill:#cccccc;fill-opacity:1"
           d="M207.04634 14.431008C206.99624 14.481148 206.94744 14.532018 206.89996 14.583695L419.031994356 226.715729356C419.079474356 226.664052356 419.128274356 226.613182356 419.178374356 226.563042356Z"
           id="path956" />
        <path
           style="fill:#cccccc;fill-opacity:1"
           d="M206.89996 14.583695L196.6867 24.797047L408.818734356 236.929081356L419.031994356 226.715729356Z"
           id="path958" />
        <path
           style="fill:#cccccc;fill-opacity:1"
           d="M196.6867 24.797047C194.78123 26.702434 194.78123 29.813987 196.6867 31.719464L408.818734356 243.851498356C406.913264356 241.946021356 406.913264356 238.834468356 408.818734356 236.929081356Z"
           id="path960" />
        <path
           style="fill:#cccccc;fill-opacity:1"
           d="M196.6867 31.719464C198.59209 33.624851 201.70364 33.624851 203.60903 31.719464L415.741064356 243.851498356C413.835674356 245.756885356 410.724124356 245.756885356 408.818734356 243.851498356Z"
           id="path962" />
        <path
           style="fill:#cccccc;fill-opacity:1"
           d="M203.60903 31.719464L210.5107 24.81779L422.642734356 236.949824356L415.741064356 243.851498356Z"
           id="path964" />
        <path
           style="fill:#cccccc;fill-opacity:1"
           d="M210.5107 24.81779L217.39533 31.702328L429.527364356 243.834362356L422.642734356 236.949824356Z"
           id="path966" />
        <path
           style="fill:#cccccc;fill-opacity:1"
           d="M217.39533 31.702328C217.396667597 31.7036210106 217.397970405 31.7049065663 217.399250611 31.7061867723L429.531284967 243.838221128C429.530004761 243.836940922 429.528701953 243.835655367 429.527364356 243.834362356Z"
           id="path968" />
        <path
           style="fill:#cccccc;fill-opacity:1"
           d="M217.399250611 31.7061867723C217.403649863 31.7105860242 217.407782219 31.7149221032 217.412142231 31.7192804318L429.544176587 243.851314788C429.539816575 243.846956459 429.535684219 243.84262038 429.531284967 243.838221128Z"
           id="path970" />
        <path
           style="fill:#cccccc;fill-opacity:1"
           d="M217.412142231 31.7192804318C217.412204774 31.7193429499 217.412267363 31.7194054725 217.41233 31.719468L429.544364356 243.851502356C429.544301719 243.851439828 429.54423913 243.851377306 429.544176587 243.851314788Z"
           id="path972" />
        <path
           style="fill:#cccccc;fill-opacity:1"
           d="M217.41233 31.719468C218.4043 32.711438 219.72329 33.186996 221.02875 33.146051L433.160784356 245.278085356C431.855324356 245.319030356 430.536334356 244.843472356 429.544364356 243.851502356Z"
           id="path974" />
        <path
           style="fill:#cccccc;fill-opacity:1"
           d="M221.02875 33.146051C222.23076 33.108351 223.42133 32.632795 224.33465 31.719468L436.466684356 243.851502356C435.553364356 244.764829356 434.362794356 245.240385356 433.160784356 245.278085356Z"
           id="path976" />
        <path
           style="fill:#cccccc;fill-opacity:1"
           d="M224.33465 31.719468C224.33965 31.713768 224.34635 31.708108 224.35175 31.702328L436.483784356 243.834362356C436.478384356 243.840142356 436.471684356 243.845802356 436.466684356 243.851502356Z"
           id="path978" />
        <path
           style="fill:#cccccc;fill-opacity:1"
           d="M224.35175 31.702328L231.23665 24.81779L443.368684356 236.949824356L436.483784356 243.834362356Z"
           id="path980" />
        <path
           style="fill:#cccccc;fill-opacity:1"
           d="M231.23665 24.81779L238.13778 31.719464L450.269814356 243.851498356L443.368684356 236.949824356Z"
           id="path982" />
        <path
           style="fill:#cccccc;fill-opacity:1"
           d="M238.13778 31.719464C240.04344 33.624851 243.1549 33.624851 245.06056 31.719464L457.192594356 243.851498356C455.286934356 245.756885356 452.175474356 245.756885356 450.269814356 243.851498356Z"
           id="path984" />
        <path
           style="fill:#cccccc;fill-opacity:1"
           d="M245.06056 31.719464C246.96531 29.813987 246.96531 26.702434 245.06056 24.797047L457.192594356 236.929081356C459.097344356 238.834468356 459.097344356 241.946021356 457.192594356 243.851498356Z"
           id="path986" />
        <path
           style="fill:#cccccc;fill-opacity:1"
           d="M245.06056 24.797047L234.84685 14.583695L446.978884356 226.715729356L457.192594356 236.929081356Z"
           id="path988" />
        <path
           style="fill:#cccccc;fill-opacity:1"
           d="M234.84685 14.583695C234.79995 14.532015 234.75035 14.481152 234.70074 14.431008L446.832774356 226.563042356C446.882384356 226.613186356 446.931984356 226.664049356 446.978884356 226.715729356Z"
           id="path990" />
        <path
           style="fill:#cccccc;fill-opacity:1"
           d="M234.70074 14.431008C234.700629892 14.4308978715 234.700519781 14.4307877494 234.700409665 14.4306776337L446.832444021 226.56271199C446.832554137 226.562822105 446.832664248 226.562932227 446.832774356 226.563042356Z"
           id="path992" />
        <path
           style="fill:#cccccc;fill-opacity:1"
           d="M234.700409665 14.4306776337C233.747169992 13.4774379613 232.491914995 13.0011790937 231.23665 13.00199L443.368684356 225.134024356C444.623949351 225.13321345 445.879204348 225.609472317 446.832444021 226.56271199Z"
           id="path994" />
        <path
           style="fill:#cccccc;fill-opacity:1"
           d="M231.23665 13.00199C229.98124 13.001179 228.72583 13.477458 227.77165 14.431008L439.903684356 226.563042356C440.857864356 225.609492356 442.113274356 225.133213356 443.368684356 225.134024356Z"
           id="path996" />
        <path
           style="fill:#cccccc;fill-opacity:1"
           d="M227.77165 14.431008C227.72205 14.481148 227.67335 14.532018 227.62555 14.583695L439.757584356 226.715729356C439.805384356 226.664052356 439.854084356 226.613182356 439.903684356 226.563042356Z"
           id="path998" />
      </g>
      <path
         d="m 220.8735,21.335839 -6.75215,-6.752144 c -0.0474,-0.05168 -0.0962,-0.102543 -0.14628,-0.152687 -0.95346,-0.95346 -2.20905,-1.429829 -3.46428,-1.429018 -1.25531,-8.11e-4 -2.51099,0.475468 -3.46445,1.429018 -0.0501,0.05014 -0.0989,0.10101 -0.14638,0.152687 L 196.6867,24.797047 c -1.90547,1.905387 -1.90547,5.01694 0,6.922417 1.90539,1.905387 5.01694,1.905387 6.92233,0 l 6.90167,-6.901674 6.88463,6.884538 c 0.006,0.0058 0.0113,0.01145 0.017,0.01714 0.99197,0.99197 2.31096,1.467528 3.61642,1.426583 1.20201,-0.0377 2.39258,-0.513256 3.3059,-1.426583 0.005,-0.0057 0.0117,-0.01136 0.0171,-0.01714 l 6.8849,-6.884538 6.90113,6.901674 c 1.90566,1.905387 5.01712,1.905387 6.92278,0 1.90475,-1.905477 1.90475,-5.01703 0,-6.922417 L 234.84685,14.583695 c -0.0469,-0.05168 -0.0965,-0.102543 -0.14611,-0.152687 -0.95328,-0.95346 -2.20868,-1.429829 -3.46409,-1.429018 -1.25541,-8.11e-4 -2.51082,0.475468 -3.465,1.429018 -0.0496,0.05014 -0.0983,0.10101 -0.1461,0.152687 z"
         id="path25"
         style="fill:#cccccc;fill-opacity:1;stroke-width:0.90187305"
         inkscape:connector-curvature="0" />
    </g>
  </g>
  <g
     id="g2329">
    <g
       id="g2139"
       style="fill:#cccccc;fill-opacity:1"
       clip-path="url(#clipPath1960)">
      <g
         id="g2135"
         style="fill:#cccccc;fill-opacity:1;stroke-width:0.90187305">
        <path
           id="path2087"
           d="M13.215147 20.400326L13.215147 20.400326L225.347181356 232.532360356L225.347181356 232.532360356Z"
           style="fill:#cccccc;fill-opacity:1" />
        <path
           id="path2089"
           d="M13.215147 20.400326C11.5829176155 26.3736929476 13.1184968533 33.0238278369 17.8050594122 37.7103903958L229.937093768 249.842424752C225.250531209 245.155862193 223.714951971 238.505727304 225.347181356 232.532360356Z"
           style="fill:#cccccc;fill-opacity:1" />
        <path
           id="path2091"
           d="M17.8050594122 37.7103903958C17.8340063985 37.7393373821 17.8630735958 37.7682094576 17.892261 37.797006L230.024295356 249.929040356C229.995107952 249.900243814 229.966040754 249.871371738 229.937093768 249.842424752Z"
           style="fill:#cccccc;fill-opacity:1" />
        <path
           id="path2093"
           d="M17.892261 37.797006C24.90252 44.713381 36.175933 44.637353 43.092398 37.627003L255.224432356 249.759037356C248.307967356 256.769387356 237.034554356 256.845415356 230.024295356 249.929040356Z"
           style="fill:#cccccc;fill-opacity:1" />
        <path
           id="path2095"
           d="M43.092398 37.627003C47.834086 32.821102 49.289258 26.011239 47.476944 19.975363L259.608978356 232.107397356C261.421292356 238.143273356 259.966120356 244.953136356 255.224432356 249.759037356Z"
           style="fill:#cccccc;fill-opacity:1" />
        <path
           id="path2097"
           d="M47.476944 19.975363C46.811632 17.759912 45.706206 15.648717 44.161388 13.779134L256.293422356 225.911168356C257.838240356 227.780751356 258.943666356 229.891946356 259.608978356 232.107397356Z"
           style="fill:#cccccc;fill-opacity:1" />
        <path
           id="path2099"
           d="M44.161388 13.779134L34.186401 3.848177L246.318435356 215.980211356L256.293422356 225.911168356Z"
           style="fill:#cccccc;fill-opacity:1" />
        <path
           id="path2101"
           d="M34.186401 3.848177C32.036336 1.706802 28.531657 1.7145013 26.389709 3.865313L238.521743356 215.997347356C240.663691356 213.846535656 244.168370356 213.838836356 246.318435356 215.980211356Z"
           style="fill:#cccccc;fill-opacity:1" />
        <path
           id="path2103"
           d="M26.389709 3.865313C26.210236 4.045886 26.045193 4.2360008 25.896384 4.4340431L238.028418356 216.566077456C238.177227356 216.368035156 238.342270356 216.177920356 238.521743356 215.997347356Z"
           style="fill:#cccccc;fill-opacity:1" />
        <path
           id="path2105"
           d="M25.896384 4.4340431L17.021953 13.347408L229.153987356 225.479442356L238.028418356 216.566077456Z"
           style="fill:#cccccc;fill-opacity:1" />
        <path
           id="path2107"
           d="M17.021953 13.347408C15.178525 15.440294 13.910491 17.859118 13.215147 20.400326L225.347181356 232.532360356C226.042525356 229.991152356 227.310559356 227.572328356 229.153987356 225.479442356Z"
           style="fill:#cccccc;fill-opacity:1" />
        <path
           id="path2109"
           d="M32.848924 32.985874C36.289569 32.902994 39.061927 30.130273 39.143096 26.688636L251.275130356 238.820670356C251.193961356 242.262307356 248.421603356 245.035028356 244.980958356 245.117908356Z"
           style="fill:#cccccc;fill-opacity:1" />
        <path
           id="path2111"
           d="M39.143096 26.688636C39.139496 26.641106 39.137696 26.593126 39.138596 26.544606L251.270630356 238.676640356C251.269730356 238.725160356 251.271530356 238.773140356 251.275130356 238.820670356Z"
           style="fill:#cccccc;fill-opacity:1" />
        <path
           id="path2113"
           d="M39.138596 26.544606C39.144896 25.613332 39.904287 24.864778 40.835921 24.871542L252.967955356 237.003576356C252.036321356 236.996812356 251.276930356 237.745366356 251.270630356 238.676640356Z"
           style="fill:#cccccc;fill-opacity:1" />
        <path
           id="path2115"
           d="M40.835921 24.871542C41.2971419779 24.8749045139 41.713613245 25.062886126 42.015679379 25.36495226L254.147713735 237.496986616C253.845647601 237.194920482 253.429176334 237.00693887 252.967955356 237.003576356Z"
           style="fill:#cccccc;fill-opacity:1" />
        <path
           id="path2117"
           d="M42.015679379 25.36495226C42.315497177 25.664770058 42.5026065822 26.0769803924 42.508896 26.532612L254.640930356 238.664646356C254.634640938 238.209014748 254.447531533 237.796804414 254.147713735 237.496986616Z"
           style="fill:#cccccc;fill-opacity:1" />
        <path
           id="path2119"
           d="M42.508896 26.532612L42.509798 26.532612L254.641832356 238.664646356L254.640930356 238.664646356Z"
           style="fill:#cccccc;fill-opacity:1" />
        <path
           id="path2121"
           d="M42.509798 26.532612C42.509798 31.95332 38.110461 36.352837 32.690204 36.352837L244.822238356 248.484871356C250.242495356 248.484871356 254.641832356 244.085354356 254.641832356 238.664646356Z"
           style="fill:#cccccc;fill-opacity:1" />
        <path
           id="path2123"
           d="M32.690204 36.352837L32.690204 36.349537L244.822238356 248.481571356L244.822238356 248.484871356Z"
           style="fill:#cccccc;fill-opacity:1" />
        <path
           id="path2125"
           d="M32.690204 36.349537C32.687504 36.349537 32.683904 36.349447 32.681204 36.349447L244.813238356 248.481481356C244.815938356 248.481481356 244.819538356 248.481571356 244.822238356 248.481571356Z"
           style="fill:#cccccc;fill-opacity:1" />
        <path
           id="path2127"
           d="M32.681204 36.349447C32.2199158407 36.3460800596 31.8037333077 36.1582187193 31.5018459779 35.8563313895L243.633880334 247.988365746C243.935767664 248.290253075 244.351950197 248.478114416 244.813238356 248.481481356Z"
           style="fill:#cccccc;fill-opacity:1" />
        <path
           id="path2129"
           d="M31.5018459779 35.8563313895C31.1940302473 35.5485156589 31.005042808 35.122151528 31.00823 34.651941L243.140264356 246.783975356C243.137077164 247.254185884 243.326064603 247.680550015 243.633880334 247.988365746Z"
           style="fill:#cccccc;fill-opacity:1" />
        <path
           id="path2131"
           d="M31.00823 34.651941C31.01453 33.720667 31.77392 32.972112 32.705555 32.978876L244.837589356 245.110910356C243.905954356 245.104146356 243.146564356 245.852701356 243.140264356 246.783975356Z"
           style="fill:#cccccc;fill-opacity:1" />
        <path
           id="path2133"
           d="M32.705555 32.978876C32.754255 32.979237 32.801155 32.981576 32.848953 32.985876L244.980987356 245.117910356C244.933189356 245.113610356 244.886289356 245.111271356 244.837589356 245.110910356Z"
           style="fill:#cccccc;fill-opacity:1" />
      </g>
      <path
         style="fill:#cccccc;fill-opacity:1;stroke-width:0.90187305"
         inkscape:connector-curvature="0"
         id="path2137"
         d="m 13.215147,20.400326 v 0 c -1.642311,6.010262 -0.07756,12.705678 4.677114,17.39668 7.010259,6.916375 18.283672,6.840347 25.200137,-0.170003 4.741688,-4.805901 6.19686,-11.615764 4.384546,-17.65164 -0.665312,-2.215451 -1.770738,-4.326646 -3.315556,-6.196229 L 34.186401,3.848177 C 32.036336,1.706802 28.531657,1.7145013 26.389709,3.865313 26.210236,4.045886 26.045193,4.2360008 25.896384,4.4340431 l -8.874431,8.9133649 c -1.843428,2.092886 -3.111462,4.51171 -3.806806,7.052918 z m 19.633777,12.585548 c 3.440645,-0.08288 6.213003,-2.855601 6.294172,-6.297238 -0.0036,-0.04753 -0.0054,-0.09551 -0.0045,-0.14403 0.0063,-0.931274 0.765691,-1.679828 1.697325,-1.673064 0.919009,0.0067 1.660349,0.74639 1.672975,1.66107 h 9.02e-4 c 0,5.420708 -4.399337,9.820225 -9.819594,9.820225 v -0.0033 c -0.0027,0 -0.0063,-9e-5 -0.009,-9e-5 -0.931635,-0.0068 -1.679287,-0.766141 -1.672974,-1.697506 0.0063,-0.931274 0.76569,-1.679829 1.697325,-1.673065 0.0487,3.61e-4 0.0956,0.0027 0.143398,0.007 z" />
    </g>
    <g
       id="g2199"
       style="fill:#cccccc;fill-opacity:1"
       clip-path="url(#clipPath1956)">
      <g
         style="fill:#cccccc;fill-opacity:1;stroke-width:0.90187305"
         id="g2195">
        <path
           d="M83.704915 24.931336L90.457058 31.683389L302.589092356 243.815423356L295.836949356 237.063370356Z"
           id="path2141"
           style="fill:#cccccc;fill-opacity:1" />
        <path
           d="M90.457058 31.683389C90.504498 31.735159 90.553288 31.786022 90.603342 31.836166L302.735376356 243.968200356C302.685322356 243.918056356 302.636532356 243.867193356 302.589092356 243.815423356Z"
           id="path2143"
           style="fill:#cccccc;fill-opacity:1" />
        <path
           d="M90.603342 31.836166C90.6033426119 31.8361666119 90.6033432237 31.8361672238 90.6033438356 31.8361678356L302.735378192 243.968202192C302.73537758 243.96820158 302.735376968 243.968200968 302.735376356 243.968200356Z"
           id="path2145"
           style="fill:#cccccc;fill-opacity:1" />
        <path
           d="M90.6033438356 31.8361678356C91.5568036114 32.7896276114 92.8123008056 33.2659959995 94.067617 33.265184L306.199651356 245.397218356C304.944335162 245.398030355 303.688837967 244.921661967 302.735378192 243.968202192Z"
           id="path2147"
           style="fill:#cccccc;fill-opacity:1" />
        <path
           d="M94.067617 33.265184C95.322934 33.265996 96.578521 32.789627 97.532072 31.836166L309.664106356 243.968200356C308.710555356 244.921661356 307.454968356 245.398030356 306.199651356 245.397218356Z"
           id="path2149"
           style="fill:#cccccc;fill-opacity:1" />
        <path
           d="M97.532072 31.836166C97.582212 31.786026 97.630912 31.735157 97.678356 31.683389L309.810390356 243.815423356C309.762946356 243.867191356 309.714246356 243.918060356 309.664106356 243.968200356Z"
           id="path2151"
           style="fill:#cccccc;fill-opacity:1" />
        <path
           d="M97.678356 31.683389L107.89171 21.470037L320.023744356 233.602071356L309.810390356 243.815423356Z"
           id="path2153"
           style="fill:#cccccc;fill-opacity:1" />
        <path
           d="M107.89171 21.470037C109.79709 19.56465 109.79709 16.453098 107.89171 14.54771L320.023744356 226.679744356C321.929124356 228.585132356 321.929124356 231.696684356 320.023744356 233.602071356Z"
           id="path2155"
           style="fill:#cccccc;fill-opacity:1" />
        <path
           d="M107.89171 14.54771C105.98632 12.642323 102.87477 12.642323 100.96938 14.54771L313.101414356 226.679744356C315.006804356 224.774357356 318.118354356 224.774357356 320.023744356 226.679744356Z"
           id="path2157"
           style="fill:#cccccc;fill-opacity:1" />
        <path
           d="M100.96938 14.54771L94.067707 21.449384L306.199741356 233.581418356L313.101414356 226.679744356Z"
           id="path2159"
           style="fill:#cccccc;fill-opacity:1" />
        <path
           d="M94.067707 21.449384L87.181726 14.563403L299.313760356 226.695437356L306.199741356 233.581418356Z"
           id="path2161"
           style="fill:#cccccc;fill-opacity:1" />
        <path
           d="M87.181726 14.563403C87.177476 14.5590696667 87.1731079444 14.5546946667 87.1687433611 14.5503300833L299.300777717 226.682364439C299.3051423 226.686729023 299.309510356 226.691104023 299.313760356 226.695437356Z"
           id="path2163"
           style="fill:#cccccc;fill-opacity:1" />
        <path
           d="M87.1687433611 14.5503300833C87.1678704444 14.5494571667 87.1669976667 14.5485846667 87.166126 14.547713L299.298160356 226.679747356C299.299032023 226.680619023 299.2999048 226.681491523 299.300777717 226.682364439Z"
           id="path2165"
           style="fill:#cccccc;fill-opacity:1" />
        <path
           d="M87.166126 14.547713C86.213387 13.595065 84.959153 13.118696 83.704918 13.118696L295.836952356 225.250730356C297.091187356 225.250730356 298.345421356 225.727099356 299.298160356 226.679747356Z"
           id="path2167"
           style="fill:#cccccc;fill-opacity:1" />
        <path
           d="M83.704918 13.118696C82.450683 13.118696 81.196448 13.595065 80.243709 14.547713L292.375743356 226.679747356C293.328482356 225.727099356 294.582717356 225.250730356 295.836952356 225.250730356Z"
           id="path2169"
           style="fill:#cccccc;fill-opacity:1" />
        <path
           d="M80.243709 14.547713C80.237709 14.553813 80.231539 14.559893 80.225489 14.566023L292.357523356 226.698057356C292.363573356 226.691927356 292.369743356 226.685847356 292.375743356 226.679747356Z"
           id="path2171"
           style="fill:#cccccc;fill-opacity:1" />
        <path
           d="M80.225489 14.566023L73.342124 21.449388L285.474158356 233.581422356L292.357523356 226.698057356Z"
           id="path2173"
           style="fill:#cccccc;fill-opacity:1" />
        <path
           d="M73.342124 21.449388L73.342124 21.449388L285.474158356 233.581422356L285.474158356 233.581422356Z"
           id="path2175"
           style="fill:#cccccc;fill-opacity:1" />
        <path
           d="M73.342124 21.449388L66.440449 14.54771L278.572483356 226.679744356L285.474158356 233.581422356Z"
           id="path2177"
           style="fill:#cccccc;fill-opacity:1" />
        <path
           d="M66.440449 14.54771C64.535061 12.642323 61.423509 12.642323 59.518122 14.54771L271.650156356 226.679744356C273.555543356 224.774357356 276.667095356 224.774357356 278.572483356 226.679744356Z"
           id="path2179"
           style="fill:#cccccc;fill-opacity:1" />
        <path
           d="M59.518122 14.54771C57.612735 16.453098 57.612735 19.56474 59.518122 21.470127L271.650156356 233.602161356C269.744769356 231.696774356 269.744769356 228.585132356 271.650156356 226.679744356Z"
           id="path2181"
           style="fill:#cccccc;fill-opacity:1" />
        <path
           d="M59.518122 21.470127L69.731474 31.683479L281.863508356 243.815513356L271.650156356 233.602161356Z"
           id="path2183"
           style="fill:#cccccc;fill-opacity:1" />
        <path
           d="M69.731474 31.683479C69.778914 31.735159 69.827614 31.786022 69.877758 31.836166L282.009792356 243.968200356C281.959648356 243.918056356 281.910948356 243.867193356 281.863508356 243.815513356Z"
           id="path2185"
           style="fill:#cccccc;fill-opacity:1" />
        <path
           d="M69.877758 31.836166C69.8777586118 31.8361666118 69.8777592236 31.8361672236 69.8777598354 31.8361678354L282.009794191 243.968202191C282.00979358 243.96820158 282.009792968 243.968200968 282.009792356 243.968200356Z"
           id="path2187"
           style="fill:#cccccc;fill-opacity:1" />
        <path
           d="M69.8777598354 31.8361678354C70.8312196113 32.7896276113 72.0868058055 33.2659959995 73.342123 33.265184L285.474157356 245.397218356C284.218840161 245.398030355 282.963253967 244.921661967 282.009794191 243.968202191Z"
           id="path2189"
           style="fill:#cccccc;fill-opacity:1" />
        <path
           d="M73.342123 33.265184C74.59744 33.265996 75.853027 32.789627 76.806488 31.836166L288.938522356 243.968200356C287.985061356 244.921661356 286.729474356 245.398030356 285.474157356 245.397218356Z"
           id="path2191"
           style="fill:#cccccc;fill-opacity:1" />
        <path
           d="M76.806488 31.836166C76.856538 31.786026 76.905328 31.735157 76.952771 31.683479L289.084805356 243.815513356C289.037362356 243.867191356 288.988572356 243.918060356 288.938522356 243.968200356Z"
           id="path2193"
           style="fill:#cccccc;fill-opacity:1" />
      </g>
      <path
         inkscape:connector-curvature="0"
         style="fill:#cccccc;fill-opacity:1;stroke-width:0.90187305"
         id="path2197"
         d="m 83.704915,24.931336 6.752143,6.752053 c 0.04744,0.05177 0.09623,0.102633 0.146284,0.152777 0.95346,0.953461 2.208958,1.42983 3.464275,1.429018 1.255317,8.12e-4 2.510904,-0.475557 3.464455,-1.429018 0.05014,-0.05014 0.09884,-0.101009 0.146284,-0.152777 L 107.89171,21.470037 c 1.90538,-1.905387 1.90538,-5.016939 0,-6.922327 -1.90539,-1.905387 -5.01694,-1.905387 -6.92233,0 l -6.901673,6.901674 -6.885981,-6.885981 c -0.0051,-0.0052 -0.01037,-0.01046 -0.0156,-0.01569 -0.952739,-0.952648 -2.206973,-1.429017 -3.461208,-1.429017 -1.254235,0 -2.50847,0.476369 -3.461209,1.429017 -0.006,0.0061 -0.01217,0.01218 -0.01822,0.01831 l -6.883365,6.883365 v 0 L 66.440449,14.54771 c -1.905388,-1.905387 -5.01694,-1.905387 -6.922327,0 -1.905387,1.905388 -1.905387,5.01703 0,6.922417 l 10.213352,10.213352 c 0.04744,0.05168 0.09614,0.102543 0.146284,0.152687 0.95346,0.953461 2.209047,1.42983 3.464365,1.429018 1.255317,8.12e-4 2.510904,-0.475557 3.464365,-1.429018 0.05005,-0.05014 0.09884,-0.101009 0.146283,-0.152687 z" />
    </g>
    <g
       id="g2239"
       style="fill:#cccccc;fill-opacity:1"
       clip-path="url(#clipPath1952)">
      <g
         id="g2235"
         style="fill:#cccccc;fill-opacity:1;stroke-width:0.90187305">
        <path
           id="path2201"
           d="M138.01412 31.3322L147.93451 21.411776L360.066544356 233.543810356L350.146154356 243.464234356Z"
           style="fill:#cccccc;fill-opacity:1" />
        <path
           id="path2203"
           d="M147.93451 21.411776C149.839961831 19.5063271692 149.83999 16.3948389975 147.934594506 14.4894435044L360.066628862 226.62147786C361.972024356 228.526873354 361.971996187 231.638361525 360.066544356 233.543810356Z"
           style="fill:#cccccc;fill-opacity:1" />
        <path
           id="path2205"
           d="M147.934594506 14.4894435044C147.934566338 14.489415336 147.934538169 14.4893871679 147.93451 14.489359L360.066544356 226.621393356C360.066572525 226.621421524 360.066600694 226.621449692 360.066628862 226.62147786Z"
           style="fill:#cccccc;fill-opacity:1" />
        <path
           id="path2207"
           d="M147.93451 14.489359C146.02912 12.583972 142.91759 12.583972 141.0122 14.489359L353.144234356 226.621393356C355.049624356 224.716006356 358.161154356 224.716006356 360.066544356 226.621393356Z"
           style="fill:#cccccc;fill-opacity:1" />
        <path
           id="path2209"
           d="M141.0122 14.489359L134.08115 21.420434L346.213184356 233.552468356L353.144234356 226.621393356Z"
           style="fill:#cccccc;fill-opacity:1" />
        <path
           id="path2211"
           d="M134.08115 21.420434L127.20846 14.54771L339.340494356 226.679744356L346.213184356 233.552468356Z"
           style="fill:#cccccc;fill-opacity:1" />
        <path
           id="path2213"
           d="M127.20846 14.54771C125.30307 12.642323 122.19154 12.642323 120.28615 14.54771L332.418184356 226.679744356C334.323574356 224.774357356 337.435104356 224.774357356 339.340494356 226.679744356Z"
           style="fill:#cccccc;fill-opacity:1" />
        <path
           id="path2215"
           d="M120.28615 14.54771C118.380698475 16.4531595246 118.38067 19.5646470025 120.286064575 21.4700415772L332.418098931 233.602075933C330.512704356 231.696681358 330.512732831 228.585193881 332.418184356 226.679744356Z"
           style="fill:#cccccc;fill-opacity:1" />
        <path
           id="path2217"
           d="M120.286064575 21.4700415772C120.28609305 21.4700700517 120.286121525 21.470098526 120.28615 21.470127L332.418184356 233.602161356C332.418155881 233.602132882 332.418127406 233.602104408 332.418098931 233.602075933Z"
           style="fill:#cccccc;fill-opacity:1" />
        <path
           id="path2219"
           d="M120.28615 21.470127L127.1526 28.336538L339.284634356 240.468572356L332.418184356 233.602161356Z"
           style="fill:#cccccc;fill-opacity:1" />
        <path
           id="path2221"
           d="M127.1526 28.336538L120.2866 35.202588L332.418634356 247.334622356L339.284634356 240.468572356Z"
           style="fill:#cccccc;fill-opacity:1" />
        <path
           id="path2223"
           d="M120.2866 35.202588C118.381210612 37.1079743876 118.38121 40.219525 120.286598163 42.1249131629L332.418632519 254.256947519C330.513244356 252.351559356 330.513244968 249.240008744 332.418634356 247.334622356Z"
           style="fill:#cccccc;fill-opacity:1" />
        <path
           id="path2225"
           d="M120.286598163 42.1249131629C120.286598775 42.1249137753 120.286599388 42.1249143876 120.2866 42.124915L332.418634356 254.256949356C332.418633744 254.256948744 332.418633131 254.256948131 332.418632519 254.256947519Z"
           style="fill:#cccccc;fill-opacity:1" />
        <path
           id="path2227"
           d="M120.2866 42.124915C122.19199 44.030302 125.30358 44.030302 127.20898 42.124915L339.341014356 254.256949356C337.435614356 256.162336356 334.324024356 256.162336356 332.418634356 254.256949356Z"
           style="fill:#cccccc;fill-opacity:1" />
        <path
           id="path2229"
           d="M127.20898 42.124915L137.02124 32.312626L349.153274356 244.444660356L339.341014356 254.256949356Z"
           style="fill:#cccccc;fill-opacity:1" />
        <path
           id="path2231"
           d="M137.02124 32.312626C137.21459 32.169859 137.39962 32.011039 137.57451 31.836166L349.706544356 243.968200356C349.531654356 244.143073356 349.346624356 244.301893356 349.153274356 244.444660356Z"
           style="fill:#cccccc;fill-opacity:1" />
        <path
           id="path2233"
           d="M137.57451 31.836166C137.73447 31.676174 137.88102 31.507704 138.01412 31.3322L350.146154356 243.464234356C350.013054356 243.639738356 349.866504356 243.808208356 349.706544356 243.968200356Z"
           style="fill:#cccccc;fill-opacity:1" />
      </g>
      <path
         inkscape:connector-curvature="0"
         style="fill:#cccccc;fill-opacity:1;stroke-width:0.90187305"
         id="path2237"
         d="m 138.01412,31.3322 9.92039,-9.920424 c 1.90548,-1.905477 1.90548,-5.017029 0,-6.922417 -1.90539,-1.905387 -5.01692,-1.905387 -6.92231,0 l -6.93105,6.931075 -6.87269,-6.872724 c -1.90539,-1.905387 -5.01692,-1.905387 -6.92231,0 -1.90548,1.905478 -1.90548,5.01703 0,6.922417 l 6.86645,6.866411 -6.866,6.86605 c -1.90539,1.905387 -1.90539,5.016939 0,6.922327 1.90539,1.905387 5.01698,1.905387 6.92238,0 l 9.81226,-9.812289 c 0.19335,-0.142767 0.37838,-0.301587 0.55327,-0.47646 0.15996,-0.159992 0.30651,-0.328462 0.43961,-0.503966 z" />
    </g>
    <g
       id="g2269"
       style="fill:#cccccc;fill-opacity:1"
       clip-path="url(#clipPath1948)">
      <g
         style="fill:#cccccc;fill-opacity:1;stroke-width:0.90187305"
         id="g2265">
        <path
           d="M166.22224 14.993326L156.30182 24.913749L368.433854356 237.045783356L378.354274356 227.125360356Z"
           id="path2241"
           style="fill:#cccccc;fill-opacity:1" />
        <path
           d="M156.30182 24.913749C154.396430919 26.8192260814 154.39643 29.930776 156.301817244 31.8361632444L368.4338516 243.9681976C366.528464356 242.062810356 366.528465275 238.951260437 368.433854356 237.045783356Z"
           id="path2243"
           style="fill:#cccccc;fill-opacity:1" />
        <path
           d="M156.301817244 31.8361632444C156.301818163 31.8361641629 156.301819081 31.8361650815 156.30182 31.836166L368.433854356 243.968200356C368.433853437 243.968199437 368.433852519 243.968198519 368.4338516 243.9681976Z"
           id="path2245"
           style="fill:#cccccc;fill-opacity:1" />
        <path
           d="M156.30182 31.836166C158.20721 33.741554 161.31876 33.741554 163.22424 31.836166L375.356274356 243.968200356C373.450794356 245.873588356 370.339244356 245.873588356 368.433854356 243.968200356Z"
           id="path2247"
           style="fill:#cccccc;fill-opacity:1" />
        <path
           d="M163.22424 31.836166L170.15522 24.905091L382.287254356 237.037125356L375.356274356 243.968200356Z"
           id="path2249"
           style="fill:#cccccc;fill-opacity:1" />
        <path
           d="M170.15522 24.905091L177.02794 31.777815L389.159974356 243.909849356L382.287254356 237.037125356Z"
           id="path2251"
           style="fill:#cccccc;fill-opacity:1" />
        <path
           d="M177.02794 31.777815C178.93333 33.683202 182.04488 33.683202 183.95027 31.777815L396.082304356 243.909849356C394.176914356 245.815236356 391.065364356 245.815236356 389.159974356 243.909849356Z"
           id="path2253"
           style="fill:#cccccc;fill-opacity:1" />
        <path
           d="M183.95027 31.777815C185.855659081 29.8723389186 185.85566 26.760788 183.950272756 24.8554007556L396.082307112 236.987435112C397.987694356 238.892822356 397.987693437 242.004373275 396.082304356 243.909849356Z"
           id="path2255"
           style="fill:#cccccc;fill-opacity:1" />
        <path
           d="M183.950272756 24.8554007556C183.950271837 24.8553998371 183.950270919 24.8553989185 183.95027 24.855398L396.082304356 236.987432356C396.082305275 236.987433275 396.082306193 236.987434193 396.082307112 236.987435112Z"
           id="path2257"
           style="fill:#cccccc;fill-opacity:1" />
        <path
           d="M183.95027 24.855398L173.58423 14.489359L385.716264356 226.621393356L396.082304356 236.987432356Z"
           id="path2259"
           style="fill:#cccccc;fill-opacity:1" />
        <path
           d="M173.58423 14.489359C171.67884 12.583972 168.56729 12.583972 166.66191 14.489359L378.793944356 226.621393356C380.699324356 224.716006356 383.810874356 224.716006356 385.716264356 226.621393356Z"
           id="path2261"
           style="fill:#cccccc;fill-opacity:1" />
        <path
           d="M166.66191 14.489359C166.50191 14.649352 166.35536 14.817821 166.22224 14.993326L378.354274356 227.125360356C378.487394356 226.949855356 378.633944356 226.781386356 378.793944356 226.621393356Z"
           id="path2263"
           style="fill:#cccccc;fill-opacity:1" />
      </g>
      <path
         inkscape:connector-curvature="0"
         style="fill:#cccccc;fill-opacity:1;stroke-width:0.90187305"
         id="path2267"
         d="m 166.22224,14.993326 -9.92042,9.920423 c -1.90539,1.905478 -1.90539,5.01703 0,6.922417 1.90539,1.905388 5.01694,1.905388 6.92242,0 l 6.93098,-6.931075 6.87272,6.872724 c 1.90539,1.905387 5.01694,1.905387 6.92233,0 1.90539,-1.905477 1.90539,-5.01703 0,-6.922417 L 173.58423,14.489359 c -1.90539,-1.905387 -5.01694,-1.905387 -6.92232,0 -0.16,0.159993 -0.30655,0.328462 -0.43967,0.503967 z" />
    </g>
    <g
       id="g2327"
       style="fill:#cccccc;fill-opacity:1"
       clip-path="url(#clipPath1944)">
      <g
         id="g2323"
         style="fill:#cccccc;fill-opacity:1;stroke-width:0.90187305">
        <path
           id="path2271"
           d="M220.8735 21.335839L214.12135 14.583695L426.253384356 226.715729356L433.005534356 233.467873356Z"
           style="fill:#cccccc;fill-opacity:1" />
        <path
           id="path2273"
           d="M214.12135 14.583695C214.07395 14.532015 214.02515 14.481152 213.97507 14.431008L426.107104356 226.563042356C426.157184356 226.613186356 426.205984356 226.664049356 426.253384356 226.715729356Z"
           style="fill:#cccccc;fill-opacity:1" />
        <path
           id="path2275"
           d="M213.97507 14.431008C213.02161 13.477548 211.76602 13.001179 210.51079 13.00199L422.642824356 225.134024356C423.898054356 225.133213356 425.153644356 225.609582356 426.107104356 226.563042356Z"
           style="fill:#cccccc;fill-opacity:1" />
        <path
           id="path2277"
           d="M210.51079 13.00199C209.25548 13.001179 207.9998 13.477458 207.04634 14.431008L419.178374356 226.563042356C420.131834356 225.609492356 421.387514356 225.133213356 422.642824356 225.134024356Z"
           style="fill:#cccccc;fill-opacity:1" />
        <path
           id="path2279"
           d="M207.04634 14.431008C206.99624 14.481148 206.94744 14.532018 206.89996 14.583695L419.031994356 226.715729356C419.079474356 226.664052356 419.128274356 226.613182356 419.178374356 226.563042356Z"
           style="fill:#cccccc;fill-opacity:1" />
        <path
           id="path2281"
           d="M206.89996 14.583695L196.6867 24.797047L408.818734356 236.929081356L419.031994356 226.715729356Z"
           style="fill:#cccccc;fill-opacity:1" />
        <path
           id="path2283"
           d="M196.6867 24.797047C194.78123 26.702434 194.78123 29.813987 196.6867 31.719464L408.818734356 243.851498356C406.913264356 241.946021356 406.913264356 238.834468356 408.818734356 236.929081356Z"
           style="fill:#cccccc;fill-opacity:1" />
        <path
           id="path2285"
           d="M196.6867 31.719464C198.59209 33.624851 201.70364 33.624851 203.60903 31.719464L415.741064356 243.851498356C413.835674356 245.756885356 410.724124356 245.756885356 408.818734356 243.851498356Z"
           style="fill:#cccccc;fill-opacity:1" />
        <path
           id="path2287"
           d="M203.60903 31.719464L210.5107 24.81779L422.642734356 236.949824356L415.741064356 243.851498356Z"
           style="fill:#cccccc;fill-opacity:1" />
        <path
           id="path2289"
           d="M210.5107 24.81779L217.39533 31.702328L429.527364356 243.834362356L422.642734356 236.949824356Z"
           style="fill:#cccccc;fill-opacity:1" />
        <path
           id="path2291"
           d="M217.39533 31.702328C217.396667597 31.7036210106 217.397970405 31.7049065663 217.399250611 31.7061867723L429.531284967 243.838221128C429.530004761 243.836940922 429.528701953 243.835655367 429.527364356 243.834362356Z"
           style="fill:#cccccc;fill-opacity:1" />
        <path
           id="path2293"
           d="M217.399250611 31.7061867723C217.403649863 31.7105860242 217.407782219 31.7149221032 217.412142231 31.7192804318L429.544176587 243.851314788C429.539816575 243.846956459 429.535684219 243.84262038 429.531284967 243.838221128Z"
           style="fill:#cccccc;fill-opacity:1" />
        <path
           id="path2295"
           d="M217.412142231 31.7192804318C217.412204774 31.7193429499 217.412267363 31.7194054725 217.41233 31.719468L429.544364356 243.851502356C429.544301719 243.851439828 429.54423913 243.851377306 429.544176587 243.851314788Z"
           style="fill:#cccccc;fill-opacity:1" />
        <path
           id="path2297"
           d="M217.41233 31.719468C218.4043 32.711438 219.72329 33.186996 221.02875 33.146051L433.160784356 245.278085356C431.855324356 245.319030356 430.536334356 244.843472356 429.544364356 243.851502356Z"
           style="fill:#cccccc;fill-opacity:1" />
        <path
           id="path2299"
           d="M221.02875 33.146051C222.23076 33.108351 223.42133 32.632795 224.33465 31.719468L436.466684356 243.851502356C435.553364356 244.764829356 434.362794356 245.240385356 433.160784356 245.278085356Z"
           style="fill:#cccccc;fill-opacity:1" />
        <path
           id="path2301"
           d="M224.33465 31.719468C224.33965 31.713768 224.34635 31.708108 224.35175 31.702328L436.483784356 243.834362356C436.478384356 243.840142356 436.471684356 243.845802356 436.466684356 243.851502356Z"
           style="fill:#cccccc;fill-opacity:1" />
        <path
           id="path2303"
           d="M224.35175 31.702328L231.23665 24.81779L443.368684356 236.949824356L436.483784356 243.834362356Z"
           style="fill:#cccccc;fill-opacity:1" />
        <path
           id="path2305"
           d="M231.23665 24.81779L238.13778 31.719464L450.269814356 243.851498356L443.368684356 236.949824356Z"
           style="fill:#cccccc;fill-opacity:1" />
        <path
           id="path2307"
           d="M238.13778 31.719464C240.04344 33.624851 243.1549 33.624851 245.06056 31.719464L457.192594356 243.851498356C455.286934356 245.756885356 452.175474356 245.756885356 450.269814356 243.851498356Z"
           style="fill:#cccccc;fill-opacity:1" />
        <path
           id="path2309"
           d="M245.06056 31.719464C246.96531 29.813987 246.96531 26.702434 245.06056 24.797047L457.192594356 236.929081356C459.097344356 238.834468356 459.097344356 241.946021356 457.192594356 243.851498356Z"
           style="fill:#cccccc;fill-opacity:1" />
        <path
           id="path2311"
           d="M245.06056 24.797047L234.84685 14.583695L446.978884356 226.715729356L457.192594356 236.929081356Z"
           style="fill:#cccccc;fill-opacity:1" />
        <path
           id="path2313"
           d="M234.84685 14.583695C234.79995 14.532015 234.75035 14.481152 234.70074 14.431008L446.832774356 226.563042356C446.882384356 226.613186356 446.931984356 226.664049356 446.978884356 226.715729356Z"
           style="fill:#cccccc;fill-opacity:1" />
        <path
           id="path2315"
           d="M234.70074 14.431008C234.700629892 14.4308978715 234.700519781 14.4307877494 234.700409665 14.4306776337L446.832444021 226.56271199C446.832554137 226.562822105 446.832664248 226.562932227 446.832774356 226.563042356Z"
           style="fill:#cccccc;fill-opacity:1" />
        <path
           id="path2317"
           d="M234.700409665 14.4306776337C233.747169992 13.4774379613 232.491914995 13.0011790937 231.23665 13.00199L443.368684356 225.134024356C444.623949351 225.13321345 445.879204348 225.609472317 446.832444021 226.56271199Z"
           style="fill:#cccccc;fill-opacity:1" />
        <path
           id="path2319"
           d="M231.23665 13.00199C229.98124 13.001179 228.72583 13.477458 227.77165 14.431008L439.903684356 226.563042356C440.857864356 225.609492356 442.113274356 225.133213356 443.368684356 225.134024356Z"
           style="fill:#cccccc;fill-opacity:1" />
        <path
           id="path2321"
           d="M227.77165 14.431008C227.72205 14.481148 227.67335 14.532018 227.62555 14.583695L439.757584356 226.715729356C439.805384356 226.664052356 439.854084356 226.613182356 439.903684356 226.563042356Z"
           style="fill:#cccccc;fill-opacity:1" />
      </g>
      <path
         inkscape:connector-curvature="0"
         style="fill:#cccccc;fill-opacity:1;stroke-width:0.90187305"
         id="path2325"
         d="m 220.8735,21.335839 -6.75215,-6.752144 c -0.0474,-0.05168 -0.0962,-0.102543 -0.14628,-0.152687 -0.95346,-0.95346 -2.20905,-1.429829 -3.46428,-1.429018 -1.25531,-8.11e-4 -2.51099,0.475468 -3.46445,1.429018 -0.0501,0.05014 -0.0989,0.10101 -0.14638,0.152687 L 196.6867,24.797047 c -1.90547,1.905387 -1.90547,5.01694 0,6.922417 1.90539,1.905387 5.01694,1.905387 6.92233,0 l 6.90167,-6.901674 6.88463,6.884538 c 0.006,0.0058 0.0113,0.01145 0.017,0.01714 0.99197,0.99197 2.31096,1.467528 3.61642,1.426583 1.20201,-0.0377 2.39258,-0.513256 3.3059,-1.426583 0.005,-0.0057 0.0117,-0.01136 0.0171,-0.01714 l 6.8849,-6.884538 6.90113,6.901674 c 1.90566,1.905387 5.01712,1.905387 6.92278,0 1.90475,-1.905477 1.90475,-5.01703 0,-6.922417 L 234.84685,14.583695 c -0.0469,-0.05168 -0.0965,-0.102543 -0.14611,-0.152687 -0.95328,-0.95346 -2.20868,-1.429829 -3.46409,-1.429018 -1.25541,-8.11e-4 -2.51082,0.475468 -3.465,1.429018 -0.0496,0.05014 -0.0983,0.10101 -0.1461,0.152687 z" />
    </g>
  </g>
  <g
     transform="matrix(0.90187307,0,0,0.90187307,134.11033,1.0113172)"
     id="widget">
    <path
       inkscape:connector-curvature="0"
       style="fill:#f9b194;fill-opacity:1"
       id="path4"
       d="m 96.2033,22.5359 -7.4868,-7.4868 c -0.0526,-0.0573 -0.1067,-0.1137 -0.1622,-0.1693 -1.0572,-1.0572 -2.4494,-1.5854 -3.8412,-1.5845 -1.3919,-9e-4 -2.7842,0.5272 -3.8414,1.5845 -0.0556,0.0556 -0.1097,0.112 -0.1623,0.1693 L 69.3849,26.3737 c -2.1128,2.1127 -2.1128,5.5628 0,7.6756 2.1127,2.1127 5.5628,2.1127 7.6755,0 l 7.6526,-7.6526 7.6337,7.6336 c 0.0062,0.0064 0.0125,0.0127 0.0188,0.019 1.0999,1.0999 2.5624,1.6272 4.0099,1.5818 1.3328,-0.0418 2.6529,-0.5691 3.6656,-1.5818 0.006,-0.0063 0.013,-0.0126 0.019,-0.019 l 7.634,-7.6336 7.652,7.6526 c 2.113,2.1127 5.563,2.1127 7.676,0 2.112,-2.1128 2.112,-5.5629 0,-7.6756 L 111.697,15.0491 c -0.052,-0.0573 -0.107,-0.1137 -0.162,-0.1693 -1.057,-1.0572 -2.449,-1.5854 -3.841,-1.5845 -1.392,-9e-4 -2.784,0.5272 -3.842,1.5845 -0.055,0.0556 -0.109,0.112 -0.162,0.1693 z" />
    <path
       inkscape:connector-curvature="0"
       style="fill:#f67280;fill-opacity:1"
       id="path6"
       d="M 35.6058,15.5033 24.606,26.5031 c -2.1127,2.1128 -2.1127,5.5629 0,7.6756 2.1127,2.1127 5.5628,2.1127 7.6756,0 l 7.6851,-7.6852 7.6205,7.6205 c 2.1127,2.1127 5.5628,2.1127 7.6755,0 2.1127,-2.1128 2.1127,-5.5629 0,-7.6756 L 43.7688,14.9445 c -2.1127,-2.1127 -5.5628,-2.1127 -7.6755,0 -0.1774,0.1774 -0.3399,0.3642 -0.4875,0.5588 z" />
    <path
       inkscape:connector-curvature="0"
       style="fill:#c16c84;fill-opacity:1"
       id="path8"
       d="M 4.32854,33.6199 15.3283,22.6201 c 2.1128,-2.1128 2.1128,-5.5629 0,-7.6756 -2.1127,-2.1127 -5.56278,-2.1127 -7.67548,0 L -0.0323587,22.6297 -7.65282,15.0092 c -2.1127,-2.1127 -5.56278,-2.1127 -7.67548,0 -2.1128,2.1128 -2.1128,5.5629 0,7.6756 l 7.61354,7.6135 -7.61304,7.6131 c -2.1127,2.1127 -2.1127,5.5628 0,7.6755 2.1127,2.1127 5.56285,2.1127 7.67556,0 L 3.22763,34.707 c 0.21438,-0.1583 0.41955,-0.3344 0.61346,-0.5283 0.17737,-0.1774 0.33986,-0.3642 0.48745,-0.5588 z" />
    <path
       inkscape:connector-curvature="0"
       style="fill:#6c5b7b;fill-opacity:1"
       id="path10"
       d="m -55.8897,26.5226 7.4868,7.4867 c 0.0526,0.0574 0.1067,0.1138 0.1622,0.1694 1.0572,1.0572 2.4493,1.5854 3.8412,1.5845 1.3919,9e-4 2.7841,-0.5273 3.8414,-1.5845 0.0556,-0.0556 0.1096,-0.112 0.1622,-0.1694 l 11.3246,-11.3246 c 2.1127,-2.1127 2.1127,-5.5628 0,-7.6755 -2.1127,-2.1127 -5.5628,-2.1127 -7.6755,0 l -7.6526,7.6526 -7.6352,-7.6352 c -0.0057,-0.0058 -0.0115,-0.0116 -0.0173,-0.0174 -1.0564,-1.0563 -2.4471,-1.5845 -3.8378,-1.5845 -1.3907,0 -2.7814,0.5282 -3.8378,1.5845 -0.0067,0.0068 -0.0135,0.0135 -0.0202,0.0203 l -7.6323,7.6323 v 0 l -7.6526,-7.6526 c -2.1127,-2.1127 -5.5628,-2.1127 -7.6755,0 -2.1127,2.1127 -2.1127,5.5629 0,7.6756 l 11.3246,11.3246 c 0.0526,0.0573 0.1066,0.1137 0.1622,0.1693 1.0572,1.0572 2.4494,1.5854 3.8413,1.5845 1.3919,9e-4 2.7841,-0.5273 3.8413,-1.5845 0.0555,-0.0556 0.1096,-0.112 0.1622,-0.1693 z" />
    <path
       style="fill:#345b7d;fill-opacity:1"
       inkscape:connector-curvature="0"
       id="path12"
       d="m -134.049,21.4986 v 0 c -1.821,6.6642 -0.086,14.0881 5.186,19.2895 7.773,7.6689 20.273,7.5846 27.942,-0.1885 5.2576,-5.3288 6.8711,-12.8796 4.8616,-19.5722 -0.7377,-2.4565 -1.9634,-4.7974 -3.6763,-6.8704 L -110.796,3.14552 c -2.384,-2.374364 -6.27,-2.365827 -8.645,0.019 -0.199,0.20022 -0.382,0.41102 -0.547,0.63061 l -9.84,9.88317 c -2.044,2.3206 -3.45,5.0026 -4.221,7.8203 z m 21.77,13.9549 c 3.815,-0.0919 6.889,-3.1663 6.979,-6.9824 -0.004,-0.0527 -0.006,-0.1059 -0.005,-0.1597 0.007,-1.0326 0.849,-1.8626 1.882,-1.8551 1.019,0.0074 1.841,0.8276 1.855,1.8418 h 0.001 c 0,6.0105 -4.878,10.8887 -10.888,10.8887 v -0.0037 c -0.003,0 -0.007,-1e-4 -0.01,-1e-4 -1.033,-0.0075 -1.862,-0.8495 -1.855,-1.8822 0.007,-1.0326 0.849,-1.8626 1.882,-1.8551 0.054,4e-4 0.106,0.003 0.159,0.0078 z" />
  </g>
</svg>
