<?xml version="1.0" encoding="UTF-8" standalone="no"?>
<svg
   xmlns:dc="http://purl.org/dc/elements/1.1/"
   xmlns:cc="http://creativecommons.org/ns#"
   xmlns:rdf="http://www.w3.org/1999/02/22-rdf-syntax-ns#"
   xmlns:svg="http://www.w3.org/2000/svg"
   xmlns="http://www.w3.org/2000/svg"
   xmlns:sodipodi="http://sodipodi.sourceforge.net/DTD/sodipodi-0.dtd"
   xmlns:inkscape="http://www.inkscape.org/namespaces/inkscape"
   id="svg15"
   viewBox="0 0 40 40"
   height="40"
   width="40"
   version="1.1"
   sodipodi:docname="logo-drop.svg"
   inkscape:version="0.92.2 (5c3e80d, 2017-08-06)"
   inkscape:export-filename="E:\Code\Wyam.Collateral\logo-drop.png"
   inkscape:export-xdpi="240"
   inkscape:export-ydpi="240">
  <sodipodi:namedview
     pagecolor="#ffffff"
     bordercolor="#666666"
     borderopacity="1"
     objecttolerance="10"
     gridtolerance="10"
     guidetolerance="10"
     inkscape:pageopacity="0"
     inkscape:pageshadow="2"
     inkscape:window-width="2560"
     inkscape:window-height="1388"
     id="namedview7"
     showgrid="false"
     inkscape:zoom="5.231106"
     inkscape:cx="2.9399477"
     inkscape:cy="22.557371"
     inkscape:window-x="1912"
     inkscape:window-y="130"
     inkscape:window-maximized="1"
     inkscape:current-layer="svg15" />
  <metadata
     id="metadata21">
    <rdf:RDF>
      <cc:Work
         rdf:about="">
        <dc:format>image/svg+xml</dc:format>
        <dc:type
           rdf:resource="http://purl.org/dc/dcmitype/StillImage" />
        <dc:title></dc:title>
      </cc:Work>
    </rdf:RDF>
  </metadata>
  <defs
     id="defs19" />
  <g
     transform="matrix(0.77966103,0,0,0.77966103,5.3498689,32.786896)"
     id="widget">
    <path
       style="fill:#345b7d;fill-opacity:1"
       id="path12"
       d="m -0.0323587,-19.167502 v 0 c -1.821,6.6642 -0.086,14.0881003 5.186,19.28950028 7.7729997,7.66890002 20.2729997,7.58460002 27.9419997,-0.1885 5.2576,-5.32879998 6.8711,-12.87960028 4.8616,-19.57220028 -0.7377,-2.4565 -1.9634,-4.7974 -3.6763,-6.8704 l -11.0603,-11.01148 c -2.384,-2.374364 -6.27,-2.365827 -8.645,0.019 -0.199,0.20022 -0.382,0.41102 -0.547,0.63061 l -9.8399997,9.88317 c -2.044,2.3206 -3.45,5.0026 -4.221,7.8203 z M 21.737641,-5.2126017 c 3.815,-0.0919 6.889,-3.1663 6.979,-6.9824003 -0.004,-0.0527 -0.006,-0.1059 -0.005,-0.1597 0.007,-1.0326 0.849,-1.8626 1.882,-1.8551 1.019,0.0074 1.841,0.8276 1.855,1.8418 h 10e-4 c 0,6.0105003 -4.878,10.8887003 -10.888,10.8887003 v -0.0037 c -0.003,0 -0.007,-10e-5 -0.01,-10e-5 -1.033,-0.0075 -1.862,-0.8495 -1.855,-1.8822 0.007,-1.0326 0.849,-1.8626 1.882,-1.8551 0.054,4e-4 0.106,0.003 0.159,0.0078 z"
       inkscape:connector-curvature="0" />
  </g>
</svg>
